# xmcd
#
# Track frame offsets:
# 150
# 17352
# 34420
# 56708
# 72998
# 85851
# 104388
# 122494
# 141194
# 164493
# 175073
# 187587
#
# Disc length: 2704 seconds
#
#
# Revision: 0
# Processed by: cddbd v1.5.2PL0 Copyright (c) Steve Scherf et al.
# Submitted via: Nero 7, 11, 10, 0 
#
DISCID=990a8e0c
DTITLE=Jim Cofey - Black Box Allegations
DYEAR=2008
DGENRE=Blues
TTITLE0=A Lie Is A Lie
TTITLE1=Bricks and Tiles
TTITLE2=Seems Like Yesterday
TTITLE3=Kinky Reputation
TTITLE4=She's So Guilty
TTITLE5=Waste Of Time
TTITLE6=The Table
TTITLE7=Fat Cakes
TTITLE8=The Blame
TTITLE9=That Ain't Bad
TTITLE10=Chew The Fat
TTITLE11=Four Corners
EXTD=
EXTT0=A Lie Is A Lie
EXTT1=Bricks and Tiles
EXTT2=Seems Like Yesterday
EXTT3=Kinky Reputation
EXTT4=She's So Guilty
EXTT5=Waste Of Time
EXTT6=The Table
EXTT7=Fat Cakes
EXTT8=The Blame
EXTT9=That Ain't Bad
EXTT10=Chew The Fat
EXTT11=Four Corners
PLAYORDER=
